<?xml version="1.0" encoding="UTF-8"?>
<svg width="200px" height="200px" viewBox="0 0 200 200" version="1.1" xmlns="http://www.w3.org/2000/svg" xmlns:xlink="http://www.w3.org/1999/xlink">
    <!-- Generator: Sketch 53.2 (72643) - https://sketchapp.com -->
    <title>Ecommerce PegaLogics</title>
    <desc>Created with Sketch.</desc>
    <g id="Ecommerce-NFX" stroke="none" stroke-width="1" fill="none" fill-rule="evenodd" stroke-linecap="round" stroke-linejoin="round">
        <g id="Ecommerce" transform="translate(27.000000, 19.000000)" fill-rule="nonzero" stroke-width="5">
            <g id="cart" transform="translate(0.000000, 28.000000)" stroke="#ffffff">
                <path d="M130.877038,24.4787235 L144.339632,24.4787235 C144.804591,24.4787235 145.241456,24.7043729 145.511161,25.0851563 C145.780865,25.4659394 145.849696,25.9539063 145.697987,26.3953328 C142.638286,35.2614178 140.34351,41.9109816 138.81366,46.3440241 C137.318076,50.6777723 135.0747,57.1783945 132.083532,65.8458907 C130.300954,71.0090302 125.457512,74.4713372 120.014259,74.4713372 C97.0693498,74.4713372 79.8606682,74.4713372 68.3882137,74.4713372 C62.1969008,74.4713372 52.9099313,74.4713372 40.5273054,74.4713372 L40.1283675,74.5362115 L32.2381082,24.5182122 L32.4909558,24.4787235 C37.5412932,24.4787235 41.3290462,24.4787235 43.8542149,24.4787235" id="Path"></path>
                <path d="M125.954754,122.201359 C125.954754,128.676086 120.726421,133.923843 114.278799,133.923843 C107.829773,133.923843 102.60144,128.676086 102.60144,122.201359 C102.60144,115.726634 107.829773,110.478876 114.278799,110.478876 C120.726421,110.478876 125.954754,115.726634 125.954754,122.201359 Z" id="Path"></path>
                <path d="M73.3946976,122.201359 C73.3946976,128.676086 68.1663646,133.923843 61.7187432,133.923843 C55.2697168,133.923843 50.0413838,128.676086 50.0413838,122.201359 C50.0413838,115.726634 55.2697168,110.478876 61.7187432,110.478876 C68.1663646,110.478876 73.3946976,115.726634 73.3946976,122.201359 Z" id="Path"></path>
                <path d="M0,0 L15.3548916,0.00011888057 C22.8883546,-0.0294975064 29.3092864,5.47775687 30.4569349,12.9523916 L42.6147051,90.0384408 C43.3844865,95.0520874 47.6913294,98.7456849 52.7440733,98.7259408 L127.876424,98.7260196" id="Path"></path>
            </g>
            <g id="internet" transform="translate(51.000000, 0.000000)" stroke="#45bb09">
                <circle id="Oval" cx="37.5" cy="37.5" r="37.5"></circle>
                <path d="M37.4161074,0 L37.4469363,74.2021277" id="Path-2"></path>
                <path d="M31.1170213,0.79787234 C22.0744681,8.27525672 17.5531915,20.4943018 17.5531915,37.4550075 C17.5531915,54.4157133 22.0744681,66.6647533 31.1170213,74.2021277" id="Path-3"></path>
                <path d="M57.4468085,0.79787234 C48.4042553,8.27525672 43.8829787,20.4943018 43.8829787,37.4550075 C43.8829787,54.4157133 48.4042553,66.6647533 57.4468085,74.2021277" id="Path-3" transform="translate(50.664894, 37.500000) scale(-1, 1) translate(-50.664894, -37.500000) "></path>
                <path d="M9.57446809,12.7659574 C16.0932445,17.0212766 25.2687764,19.1489362 37.1010638,19.1489362 C48.9333513,19.1489362 58.1088832,17.0212766 64.6276596,12.7659574" id="Path-4"></path>
                <path d="M9.57446809,55.8510638 C16.0932445,60.106383 25.2687764,62.2340426 37.1010638,62.2340426 C48.9333513,62.2340426 58.1088832,60.106383 64.6276596,55.8510638" id="Path-4" transform="translate(37.101064, 59.042553) scale(1, -1) translate(-37.101064, -59.042553) "></path>
                <path d="M0,37.5 L75,37.5" id="Path-5"></path>
            </g>
        </g>
    </g>
</svg>