<?xml version="1.0" encoding="UTF-8"?>
<svg width="200px" height="200px" viewBox="0 0 200 200" version="1.1" xmlns="http://www.w3.org/2000/svg" xmlns:xlink="http://www.w3.org/1999/xlink">
    <!-- Generator: Sketch 53.2 (72643) - https://sketchapp.com -->
    <title>Fintech PegaLogics</title>
    <desc>Created with Sketch.</desc>
    <g id="Fintech-NFX" stroke="none" stroke-width="1" fill="none" fill-rule="evenodd">
        <g id="Fintech" transform="translate(22.000000, 23.000000)" fill-rule="nonzero">
            <rect id="Rectangle" stroke="#ffffff" stroke-width="5" stroke-linecap="round" stroke-linejoin="round" x="28.7085714" y="26.0689655" width="98.6857143" height="99.2528736" rx="8.99999976"></rect>
            <rect id="Rectangle" stroke="#ffffff" stroke-width="5" stroke-linecap="round" stroke-linejoin="round" x="44.8571429" y="42.3103448" width="66.3885714" height="66.7701149" rx="8.99999976"></rect>
            <path d="M79.6781999,72.6448527 L79.0348305,72.4332185 L79.0348305,62.2835821 C80.4941348,62.4068121 81.5539123,62.8094145 82.2235416,63.4902411 C83.0661116,64.3474933 83.4873967,65.7627248 83.4873967,67.7405281 L90.2238302,67.7405281 C90.2238302,64.2085725 89.1591758,61.4791427 87.0351191,59.5564485 C85.1147647,57.8270188 82.4475017,56.8725603 79.0393322,56.6984309 L79.0393322,53 L76.6470486,53 L76.6470486,56.7776502 C73.5273638,56.9697666 71.008282,57.9402985 69.0879276,59.6888634 C66.8937192,61.699579 65.7975529,64.4186759 65.7975529,67.844623 C65.7975529,70.6429392 66.7053977,72.8901646 68.5270896,74.5855339 C70.2043517,76.1419824 72.9117549,77.5239189 76.6470486,78.7298125 L76.6470486,89.956372 C75.2755277,89.745886 74.2146248,89.2234979 73.4583375,88.3819365 C72.4979728,87.2782243 72.0714358,85.5859166 72.1757254,83.2946804 L65.0277605,83.2946804 L65,84.2380406 C65,87.8756219 66.011009,90.6574818 68.0367784,92.5805587 C70.0591715,94.503253 72.9293866,95.580176 76.6492995,95.8086491 L76.6492995,101 L79.0415831,101 L79.0415831,95.7787983 C82.5187788,95.6272484 85.3327225,94.5912744 87.474411,92.684271 C89.8228029,90.6077306 91,87.8029085 91,84.2652124 C91,81.2407195 90.1397983,78.8518944 88.4212706,77.1033295 C86.700492,75.3390739 83.7845095,73.8515117 79.6781999,72.6448527 Z M76.6414215,71.5954841 C75.5925231,71.1599694 74.7623328,70.6942212 74.1369703,70.2051282 C73.0205463,69.329889 72.4638348,68.264447 72.4638348,67.0045924 C72.4638348,65.5013395 72.9518952,64.329889 73.9328928,63.4883276 C74.6415369,62.8763873 75.5381275,62.4917719 76.6391706,62.3344814 L76.6414215,71.5954841 L76.6414215,71.5954841 Z M82.3544664,88.6172981 C81.4987664,89.3861462 80.3875943,89.840796 79.0348305,89.9831611 L79.0348305,79.4940681 C80.6314369,80.0214313 81.7891266,80.6364332 82.5075245,81.3559127 C83.4562598,82.2514351 83.9263134,83.3849981 83.9263134,84.7669346 C83.9263134,86.4048986 83.4011139,87.6900115 82.3544664,88.6172981 Z" id="Shape" fill="#45bb09"></path>
            <g id="Group" transform="translate(0.000000, 42.310345)" stroke="#ffffff" stroke-linecap="round" stroke-linejoin="round" stroke-width="5">
                <path d="M13.4571429,6.76724138 L35.8857143,6.76724138" id="Path-15"></path>
                <path d="M13.4571429,33.8362069 L35.8857143,33.8362069" id="Path-15"></path>
                <path d="M11.3052921,6.16467639 C11.3052921,9.1548983 8.89506714,11.5784695 5.92275872,11.5784695 C2.94980262,11.5784695 0.53957782,9.1548983 0.53957782,6.16467639 C0.53957782,3.17445465 2.94980262,0.750883285 5.92275872,0.750883285 C8.89506714,0.750883285 11.3052921,3.17445465 11.3052921,6.16467639 Z" id="Path"></path>
                <path d="M11.3052921,60.3026074 C11.3052921,63.2928293 8.89506714,65.7164005 5.92275872,65.7164005 C2.94980262,65.7164005 0.53957782,63.2928293 0.53957782,60.3026074 C0.53957782,57.3123857 2.94980262,54.8888143 5.92275872,54.8888143 C8.89506714,54.8888143 11.3052921,57.3123857 11.3052921,60.3026074 Z" id="Path"></path>
                <path d="M13.4571429,60.9051724 L35.8857143,60.9051724" id="Path-15"></path>
            </g>
            <g id="Group" transform="translate(139.000000, 75.310345) scale(-1, 1) translate(-139.000000, -75.310345) translate(121.000000, 42.310345)" stroke="#ffffff" stroke-linecap="round" stroke-linejoin="round" stroke-width="5">
                <path d="M13.4571429,6.76724138 L35.8857143,6.76724138" id="Path-15"></path>
                <path d="M13.4571429,33.8362069 L35.8857143,33.8362069" id="Path-15"></path>
                <path d="M11.3052921,6.16467639 C11.3052921,9.1548983 8.89506714,11.5784695 5.92275872,11.5784695 C2.94980262,11.5784695 0.53957782,9.1548983 0.53957782,6.16467639 C0.53957782,3.17445465 2.94980262,0.750883285 5.92275872,0.750883285 C8.89506714,0.750883285 11.3052921,3.17445465 11.3052921,6.16467639 Z" id="Path"></path>
                <path d="M11.3052921,60.3026074 C11.3052921,63.2928293 8.89506714,65.7164005 5.92275872,65.7164005 C2.94980262,65.7164005 0.53957782,63.2928293 0.53957782,60.3026074 C0.53957782,57.3123857 2.94980262,54.8888143 5.92275872,54.8888143 C8.89506714,54.8888143 11.3052921,57.3123857 11.3052921,60.3026074 Z" id="Path"></path>
                <path d="M13.4571429,60.9051724 L35.8857143,60.9051724" id="Path-15"></path>
            </g>
            <g id="Group" transform="translate(78.531314, 131.143924) rotate(-90.000000) translate(-78.531314, -131.143924) translate(65.031314, 103.143924)" stroke="#ffffff" stroke-linecap="round" stroke-linejoin="round" stroke-width="5">
                <path d="M0,0.451149425 L26.9142857,0.451149425" id="Path-15"></path>
                <path d="M0,27.5201149 L26.9142857,27.5201149" id="Path-15"></path>
                <path d="M0,54.5890805 L26.9142857,54.5890805" id="Path-15"></path>
            </g>
            <g id="Group" transform="translate(78.114943, 77.602857) rotate(-90.000000) translate(-78.114943, -77.602857) translate(0.614943, 44.602857)" stroke="#ffffff" stroke-linecap="round" stroke-linejoin="round" stroke-width="5">
                <path d="M122.011429,5.86494253 L144.44,5.86494253" id="Path-15"></path>
                <path d="M11.364836,60.5455524 C11.364836,63.5357743 8.95461108,65.9593455 5.98230266,65.9593455 C3.00934656,65.9593455 0.599121762,63.5357743 0.599121762,60.5455524 C0.599121762,57.5553307 3.00934656,55.1317593 5.98230266,55.1317593 C8.95461108,55.1317593 11.364836,57.5553307 11.364836,60.5455524 Z" id="Path"></path>
                <path d="M11.364836,6.40762137 C11.364836,9.39784328 8.95461108,11.8214145 5.98230266,11.8214145 C3.00934656,11.8214145 0.599121762,9.39784328 0.599121762,6.40762137 C0.599121762,3.41739963 3.00934656,0.993828267 5.98230266,0.993828267 C8.95461108,0.993828267 11.364836,3.41739963 11.364836,6.40762137 Z" id="Path"></path>
                <path d="M122.011429,32.933908 L144.44,32.933908" id="Path-15"></path>
                <path d="M122.011429,60.0028736 L144.44,60.0028736" id="Path-15"></path>
                <path d="M154.907693,5.50532252 C154.907693,8.49554443 152.497468,10.9191156 149.52516,10.9191156 C146.552204,10.9191156 144.141979,8.49554443 144.141979,5.50532252 C144.141979,2.51510078 146.552204,0.0915294164 149.52516,0.0915294164 C152.497468,0.0915294164 154.907693,2.51510078 154.907693,5.50532252 Z" id="Path"></path>
                <path d="M154.907693,59.6432536 C154.907693,62.6334755 152.497468,65.0570467 149.52516,65.0570467 C146.552204,65.0570467 144.141979,62.6334755 144.141979,59.6432536 C144.141979,56.6530318 146.552204,54.2294605 149.52516,54.2294605 C152.497468,54.2294605 154.907693,56.6530318 154.907693,59.6432536 Z" id="Path"></path>
            </g>
        </g>
    </g>
</svg>