<?xml version="1.0" encoding="UTF-8"?>
<svg width="200px" height="200px" viewBox="0 0 200 200" version="1.1" xmlns="http://www.w3.org/2000/svg" xmlns:xlink="http://www.w3.org/1999/xlink">
    <!-- Generator: Sketch 53.2 (72643) - https://sketchapp.com -->
    <title>Health tech PegaLogics</title>
    <desc>Created with Sketch.</desc>
    <g id="Health-tech-NFX-B" stroke="none" stroke-width="1" fill="none" fill-rule="evenodd" stroke-linecap="round" stroke-linejoin="round">
        <g transform="translate(49.000000, 14.000000)" fill-rule="nonzero" stroke-width="5.50000012">
            <g id="Watch" transform="translate(0.000000, -0.000000)" stroke="#ffffff">
                <path d="M94.2751769,54.3512299 C98.0355403,54.6047812 100.854272,56.2831913 100.862133,58.2734248 L100.862133,81.984427 C100.854272,83.9746606 98.0355403,85.6530707 94.2751769,85.906622 L94.2751769,54.3512299 Z" id="Path"></path>
                <path d="M18.2596562,4.31918427 C18.7550822,1.85342983 22.0893559,0.00336833956 26.043907,-1.24344979e-14 L68.0141557,-1.24344979e-14 C71.9687068,0.00336833956 75.3029805,1.85342983 75.7984065,4.31918427 L81.8032599,34.5041824 L12.2548028,34.5041824 L18.2596562,4.31918427 Z" id="Path"></path>
                <path d="M75.827818,167.680816 C75.332392,170.14657 71.9981183,171.996632 68.0435672,172 L26.0733185,172 C22.1187674,171.996632 18.7844937,170.14657 18.2890677,167.680816 L12.2842144,137.495818 L81.8326714,137.495818 L75.827818,167.680816 Z" id="Path"></path>
                <path d="M94.1168857,129.406431 C94.1112147,133.769137 90.6030708,137.304384 86.2738119,137.310099 L7.84307381,137.310099 C3.51381493,137.304384 0.00567099482,133.769137 -1.42108547e-14,129.406431 L-2.78756907e-16,48.7346862 L-2.78756907e-16,42.46609 C0.00567099482,38.1033844 3.51381493,34.5681374 7.84307381,34.5624226 L86.2738119,34.5624226 C90.6030708,34.5681374 94.1112147,38.1033844 94.1168857,42.46609 L94.1168857,129.406431 Z" id="Path"></path>
            </g>
            <g id="835376" transform="translate(8.782609, 52.923077)">
                <path d="M38.5922149,66.9859687 L68.7422888,36.6358056 C72.6003884,32.7521019 74.9866678,27.3869872 74.9866678,21.4608126 C74.9866678,9.60828617 65.4417261,0 53.6673398,0 C47.7802345,0 42.4503146,2.40211579 38.5922149,6.28564251 L38.59116,6.28670445 L38.590105,6.28564251 C34.7320054,2.40211579 29.4022613,2.51518704e-15 23.5149802,2.51518704e-15 C11.7405939,0 2.19565217,9.60828617 2.19565217,21.4608126 C2.19565217,27.3869872 4.58193156,32.7522789 8.44003121,36.6358056 L38.5922149,66.9859687 Z" id="Path" stroke="#45bb09"></path>
                <polyline id="Path" stroke="#ffffff" points="-4.54747351e-13 29.9793646 16.8085858 29.9793646 21.8415395 40.3689203 32.4321707 14.3333333 42.8395497 45.2479857 50.6018148 22.8997425 54.6401324 29.9793646 74.6521739 29.9793646"></polyline>
            </g>
        </g>
    </g>
</svg>