<?xml version="1.0" encoding="UTF-8"?>
<svg width="200px" height="200px" viewBox="0 0 200 200" version="1.1" xmlns="http://www.w3.org/2000/svg" xmlns:xlink="http://www.w3.org/1999/xlink">
    <!-- Generator: Sketch 53.2 (72643) - https://sketchapp.com -->
    <title>Saas PegaLogics</title>
    <desc>Created with Sketch.</desc>
    <g id="Saas-NFX" stroke="none" stroke-width="1" fill="none" fill-rule="evenodd" stroke-linecap="round" stroke-linejoin="round">
        <g transform="translate(23.000000, 31.000000)" fill-rule="nonzero">
            <path d="M154,13.5 L154,90 L0,90 L0,13.5 C0,6.0297 6.04540234,0 13.5351562,0 L140.464844,0 C147.954598,0 154,6.0297 154,13.5 Z" id="Path" stroke="#ffffff" stroke-width="5"></path>
            <path d="M108.622055,138 L46,138 L55.0234375,119.137536 C55.5648437,117.880248 57.2792969,117 59.2641523,117 L95.3579023,117 C97.3427578,117 99.0572109,117.880248 99.5986172,119.137536 L108.622055,138 Z" id="Path" stroke="#ffffff" stroke-width="5"></path>
            <g id="Group-4" transform="translate(41.000000, 12.000000)" stroke="#45bb09" stroke-width="3.99999976">
                <g id="Group-2" transform="translate(17.205096, 27.267634)">
                    <polygon id="Path-8" points="5.68434189e-14 8.89881105 18.4427838 0 36.7179952 8.89881105 18.4427838 17.9138875"></polygon>
                    <polyline id="Path-9" points="-1.42108547e-14 9.50526685 -1.42108547e-14 31.7412304 18.4427838 41.0439703 36.7179952 31.7412304 36.7179952 8.89881105"></polyline>
                    <path d="M18.3589976,17.9138875 L18.4427838,41.0439703" id="Path-10"></path>
                </g>
                <g id="Group" transform="translate(0.000000, 3.000000)">
                    <polyline id="Path-11" points="26.0193237 28.484375 26.0193237 16.4832805 3.01932367 16.4832805 3.01932367 6.84916285"></polyline>
                    <ellipse id="Oval" cx="3.1884058" cy="3.16842228" rx="3.1884058" ry="3.16842228"></ellipse>
                </g>
                <g id="Group" transform="translate(57.657263, 17.824544) scale(-1, 1) rotate(-360.000000) translate(-57.657263, -17.824544) translate(44.157263, 3.324544)">
                    <polyline id="Path-11" points="26.0193237 28.2027995 26.0193237 16.4832805 3.01932367 16.4832805 3.01932367 6.84916285"></polyline>
                    <ellipse id="Oval" cx="3.1884058" cy="3.16842228" rx="3.1884058" ry="3.16842228"></ellipse>
                </g>
                <g id="Group-3" transform="translate(32.169619, 0.000000)">
                    <path d="M3.43636775,27.2676342 L3.48958333,6.91292135" id="Path-12"></path>
                    <ellipse id="Oval" cx="3.47826087" cy="3.45646067" rx="3.47826087" ry="3.45646067"></ellipse>
                </g>
            </g>
            <path d="M154,90 L154,103.5 C154,110.9697 147.954598,117 140.464844,117 L13.5351562,117 C6.04540234,117 0,110.9697 0,103.5 L0,90 L154,90 Z" id="Path" stroke="#ffffff" stroke-width="5"></path>
        </g>
    </g>
</svg>